<svg height="16" width="16" xmlns="http://www.w3.org/2000/svg"><path d="m8 0-7 2.1289062v.3710938c0 4.1186368.0914972 6.5416717 1.0292969 8.449219.9377997 1.907547 2.6740358 3.142781 5.7207031 4.90625l.25.144531.25-.144531c3.046667-1.763469 4.782903-2.998703 5.720703-4.90625.9378-1.9075473 1.029297-4.3305822 1.029297-8.449219v-.3710938zm3.341797 4.0761719c.912-.026 1.380562 1.0807968.726562 1.7167969l-5.2070309 5.2070312-2.90625-2.90625c-.982-.9419999.4720625-2.3960625 1.4140625-1.4140625l1.4921875 1.4921875 3.7929689-3.7929688a1 1 0 0 1 .6875-.3027343z" fill="#4e9a06"/></svg>